<svg xmlns="http://www.w3.org/2000/svg" xmlns:xlink="http://www.w3.org/1999/xlink" width="283.0493" height="37.1524"><path fill="#000" d="M1.58 7.39L1.58 29.42L5.42 29.42L5.42 10.37L12.27 10.37L12.27 29.42L16.10 29.42L16.10 7.39ZM22.76 13.47L19.27 13.47L19.27 34.01L23.05 34.01L23.05 27.55C24.00 28.97 25.39 29.73 27.01 29.73C30.69 29.73 33.22 26.79 33.22 21.43C33.22 16.10 30.75 13.16 27.20 13.16C25.42 13.16 23.97 13.98 22.95 15.53ZM26.06 26.75C24.06 26.75 23.05 25.14 23.05 21.46C23.05 17.75 24.12 16.14 26.25 16.14C28.31 16.14 29.32 17.75 29.32 21.43C29.32 25.14 28.24 26.75 26.06 26.75ZM47.52 18.54C47.52 14.68 45.55 13.22 41.56 13.22C39.05 13.22 37.09 14.01 35.95 14.68L35.95 17.82C36.96 17.05 39.18 16.23 41.11 16.23C42.92 16.23 43.75 16.86 43.75 18.58L43.75 19.46L43.14 19.46C37.37 19.46 34.81 21.37 34.81 24.60C34.81 27.83 36.77 29.64 39.69 29.64C41.91 29.64 42.86 28.91 43.59 28.15L43.75 28.15C43.78 28.56 43.90 29.10 44.03 29.42L47.71 29.42C47.58 28.12 47.52 26.82 47.52 25.52ZM43.75 25.61C43.27 26.31 42.38 26.88 41.05 26.88C39.47 26.88 38.67 25.99 38.67 24.63C38.67 22.82 39.97 22.16 43.21 22.16L43.75 22.16ZM57.16 29.42C60.90 29.42 63.11 27.83 63.11 24.79C63.11 22.70 61.85 21.49 59.72 21.11C61.43 20.64 62.51 19.43 62.51 17.53C62.51 14.80 60.71 13.47 57.22 13.47L50.56 13.47L50.56 29.42ZM56.77 16.26C58.14 16.26 58.90 16.86 58.90 18.10C58.90 19.21 58.07 19.88 56.65 19.88L54.24 19.88L54.24 16.26ZM56.84 22.63C58.45 22.63 59.31 23.20 59.31 24.54C59.31 26.03 58.36 26.63 56.84 26.63L54.24 26.63L54.24 22.63ZM71.77 13.16C67.62 13.16 64.73 16.10 64.73 21.46C64.73 26.79 67.62 29.73 71.77 29.73C75.92 29.73 78.81 26.79 78.81 21.43C78.81 16.10 75.92 13.16 71.77 13.16ZM71.77 26.75C69.68 26.75 68.63 25.14 68.63 21.46C68.63 17.75 69.68 16.14 71.77 16.14C73.86 16.14 74.91 17.75 74.91 21.43C74.91 25.14 73.86 26.75 71.77 26.75ZM87.94 29.42C91.68 29.42 93.90 27.83 93.90 24.79C93.90 22.70 92.63 21.49 90.50 21.11C92.22 20.64 93.29 19.43 93.29 17.53C93.29 14.80 91.49 13.47 88.00 13.47L81.34 13.47L81.34 29.42ZM87.56 16.26C88.92 16.26 89.68 16.86 89.68 18.10C89.68 19.21 88.86 19.88 87.43 19.88L85.02 19.88L85.02 16.26ZM87.62 22.63C89.24 22.63 90.09 23.20 90.09 24.54C90.09 26.03 89.14 26.63 87.62 26.63L85.02 26.63L85.02 22.63ZM96.43 13.47L96.43 29.42L102.17 29.42C105.88 29.42 108.51 27.52 108.51 23.77C108.51 20.22 106.16 18.35 102.23 18.35L100.20 18.35L100.20 13.47ZM109.90 13.47L109.90 29.42L113.68 29.42L113.68 13.47ZM101.95 26.44L100.20 26.44L100.20 21.33L102.04 21.33C103.66 21.33 104.61 22.06 104.61 23.90C104.61 25.74 103.56 26.44 101.95 26.44ZM129.05 28.34L129.05 25.26C127.88 26.06 125.91 26.75 124.07 26.75C121.32 26.75 120.27 25.46 120.11 22.79L129.21 22.79L129.21 20.80C129.21 15.25 126.77 13.16 123.00 13.16C118.40 13.16 116.21 16.67 116.21 21.49C116.21 27.04 118.94 29.73 123.76 29.73C126.17 29.73 127.94 29.10 129.05 28.34ZM122.93 16.14C124.80 16.14 125.37 17.69 125.37 19.69L125.37 20.00L120.11 20.00C120.21 17.47 121.13 16.14 122.93 16.14ZM152.10 26.44L150.42 26.44L150.42 13.47L139.42 13.47L139.42 14.84C139.42 18.73 139.16 23.77 137.83 26.44L136.66 26.44L136.66 33.06L140.15 33.06L140.15 29.42L148.61 29.42L148.61 33.06L152.10 33.06ZM146.64 26.44L141.32 26.44C142.36 24.03 142.65 19.69 142.65 16.93L142.65 16.45L146.64 16.45ZM160.40 13.16C156.25 13.16 153.36 16.10 153.36 21.46C153.36 26.79 156.25 29.73 160.40 29.73C164.55 29.73 167.44 26.79 167.44 21.43C167.44 16.10 164.55 13.16 160.40 13.16ZM160.40 26.75C158.31 26.75 157.26 25.14 157.26 21.46C157.26 17.75 158.31 16.14 160.40 16.14C162.49 16.14 163.54 17.75 163.54 21.43C163.54 25.14 162.49 26.75 160.40 26.75ZM179.33 29.42L183.61 29.42L177.55 20.95L182.88 13.47L179.07 13.47L173.75 20.95L173.75 13.47L169.98 13.47L169.98 29.42L173.75 29.42L173.75 21.71ZM186.90 34.33C190.42 34.33 191.72 31.83 192.80 28.56L197.78 13.47L194.13 13.47L190.61 25.46L187.09 13.47L183.13 13.47L188.62 30.12C188.20 30.88 187.60 31.35 186.55 31.35C185.86 31.35 185.25 31.13 184.84 30.72L184.84 33.79C184.84 33.79 185.41 34.33 186.90 34.33ZM212.80 29.42L216.48 29.42L216.42 13.47L211.25 13.47L207.79 24.09L204.69 13.47L199.20 13.47L199.20 29.42L202.40 29.42L202.40 17.50L205.86 29.42L208.93 29.42L212.80 17.50ZM231.85 28.34L231.85 25.26C230.68 26.06 228.72 26.75 226.88 26.75C224.12 26.75 223.07 25.46 222.91 22.79L232.01 22.79L232.01 20.80C232.01 15.25 229.57 13.16 225.80 13.16C221.20 13.16 219.02 16.67 219.02 21.49C219.02 27.04 221.74 29.73 226.56 29.73C228.97 29.73 230.74 29.10 231.85 28.34ZM225.74 16.14C227.61 16.14 228.18 17.69 228.18 19.69L228.18 20.00L222.91 20.00C223.01 17.47 223.93 16.14 225.74 16.14ZM243.36 13.47L243.36 19.78L238.32 19.78L238.32 13.47L234.55 13.47L234.55 29.42L238.32 29.42L238.32 22.76L243.36 22.76L243.36 29.42L247.13 29.42L247.13 13.47ZM262.00 16.45L262.00 13.47L249.35 13.47L249.35 16.45L253.79 16.45L253.79 29.42L257.56 29.42L257.56 16.45ZM264.22 13.47L264.22 29.42L269.96 29.42C273.67 29.42 276.30 27.52 276.30 23.77C276.30 20.22 273.95 18.35 270.02 18.35L267.99 18.35L267.99 13.47ZM277.69 13.47L277.69 29.42L281.46 29.42L281.46 13.47ZM269.74 26.44L267.99 26.44L267.99 21.33L269.83 21.33C271.45 21.33 272.40 22.06 272.40 23.90C272.40 25.74 271.35 26.44 269.74 26.44Z"/></svg>