<svg xmlns="http://www.w3.org/2000/svg" xmlns:xlink="http://www.w3.org/1999/xlink" width="107.146" height="37.1524"><path fill="#000" d="M9.70 29.73C12.08 29.73 13.69 28.88 14.68 28.21L14.68 25.14C13.41 26.06 12.01 26.75 9.99 26.75C6.50 26.75 4.85 23.93 4.85 18.42C4.85 12.74 6.44 10.05 10.18 10.05C11.92 10.05 13.54 10.81 14.68 11.54L14.68 8.46C13.66 7.73 12.01 7.07 9.99 7.07C4.12 7.07 0.95 11.38 0.95 18.42C0.95 25.65 4.25 29.73 9.70 29.73ZM17.21 13.47L17.21 29.42L20.99 29.42L20.99 16.45L25.87 16.45L25.87 29.42L29.64 29.42L29.64 13.47ZM36.30 13.47L32.81 13.47L32.81 34.01L36.58 34.01L36.58 27.55C37.53 28.97 38.93 29.73 40.54 29.73C44.22 29.73 46.76 26.79 46.76 21.43C46.76 16.10 44.28 13.16 40.73 13.16C38.96 13.16 37.50 13.98 36.49 15.53ZM39.59 26.75C37.60 26.75 36.58 25.14 36.58 21.46C36.58 17.75 37.66 16.14 39.78 16.14C41.84 16.14 42.86 17.75 42.86 21.43C42.86 25.14 41.78 26.75 39.59 26.75ZM61.05 18.54C61.05 14.68 59.09 13.22 55.09 13.22C52.59 13.22 50.62 14.01 49.48 14.68L49.48 17.82C50.50 17.05 52.72 16.23 54.65 16.23C56.46 16.23 57.28 16.86 57.28 18.58L57.28 19.46L56.68 19.46C50.91 19.46 48.34 21.37 48.34 24.60C48.34 27.83 50.31 29.64 53.22 29.64C55.44 29.64 56.39 28.91 57.12 28.15L57.28 28.15C57.31 28.56 57.44 29.10 57.57 29.42L61.24 29.42C61.12 28.12 61.05 26.82 61.05 25.52ZM57.28 25.61C56.81 26.31 55.92 26.88 54.59 26.88C53.00 26.88 52.21 25.99 52.21 24.63C52.21 22.82 53.51 22.16 56.74 22.16L57.28 22.16ZM70.69 29.42C74.43 29.42 76.65 27.83 76.65 24.79C76.65 22.70 75.38 21.49 73.26 21.11C74.97 20.64 76.05 19.43 76.05 17.53C76.05 14.80 74.24 13.47 70.75 13.47L64.10 13.47L64.10 29.42ZM70.31 16.26C71.67 16.26 72.43 16.86 72.43 18.10C72.43 19.21 71.61 19.88 70.18 19.88L67.77 19.88L67.77 16.26ZM70.37 22.63C71.99 22.63 72.85 23.20 72.85 24.54C72.85 26.03 71.90 26.63 70.37 26.63L67.77 26.63L67.77 22.63ZM88.54 29.42L92.82 29.42L86.76 20.95L92.09 13.47L88.28 13.47L82.96 20.95L82.96 13.47L79.19 13.47L79.19 29.42L82.96 29.42L82.96 21.71ZM105.69 18.54C105.69 14.68 103.72 13.22 99.73 13.22C97.22 13.22 95.26 14.01 94.12 14.68L94.12 17.82C95.13 17.05 97.35 16.23 99.28 16.23C101.09 16.23 101.92 16.86 101.92 18.58L101.92 19.46L101.31 19.46C95.54 19.46 92.98 21.37 92.98 24.60C92.98 27.83 94.94 29.64 97.86 29.64C100.08 29.64 101.03 28.91 101.76 28.15L101.92 28.15C101.95 28.56 102.07 29.10 102.20 29.42L105.88 29.42C105.75 28.12 105.69 26.82 105.69 25.52ZM101.92 25.61C101.44 26.31 100.55 26.88 99.22 26.88C97.64 26.88 96.84 25.99 96.84 24.63C96.84 22.82 98.14 22.16 101.38 22.16L101.92 22.16Z"/></svg>